<?xml version="1.0" standalone="no"?>
<!DOCTYPE svg PUBLIC "-//W3C//DTD SVG 20010904//EN"
 "http://www.w3.org/TR/2001/REC-SVG-20010904/DTD/svg10.dtd">
<svg version="1.0" xmlns="http://www.w3.org/2000/svg"
 width="668.000000pt" height="668.000000pt" viewBox="0 0 668.000000 668.000000"
 preserveAspectRatio="xMidYMid meet">
<metadata>
Created by potrace 1.11, written by Peter Selinger 2001-2013
</metadata>
<g transform="translate(0.000000,668.000000) scale(0.100000,-0.100000)"
fill="#000000" stroke="none">
<path d="M1233 5800 c-2 -3 -8 -5 -11 -6 -94 -11 -130 -32 -187 -109 -17 -22
-34 -44 -38 -50 -4 -5 -29 -39 -55 -75 -26 -36 -51 -70 -57 -76 -5 -6 -17 -22
-25 -34 -18 -27 -176 -240 -189 -256 -5 -6 -30 -42 -56 -79 -50 -74 -53 -97
-20 -170 18 -38 171 -433 179 -462 6 -19 2 -22 -36 -28 -48 -8 -48 -8 -138
-28 -72 -15 -132 -41 -151 -64 -18 -21 -19 -90 -3 -122 7 -14 27 -61 43 -104
17 -43 36 -83 43 -91 54 -53 129 -61 273 -28 126 29 145 32 146 21 2 -14 5
-22 16 -49 6 -14 32 -79 57 -145 26 -66 51 -129 56 -140 4 -11 23 -58 40 -105
18 -47 35 -89 38 -95 4 -5 7 -14 8 -20 1 -5 16 -45 34 -88 29 -67 39 -82 77
-103 57 -34 106 -35 235 -8 59 13 117 25 130 28 13 2 56 12 95 20 40 9 87 18
105 22 45 8 63 12 63 14 0 2 33 9 65 14 14 2 61 11 105 21 44 9 88 18 99 20
44 9 89 49 102 90 13 39 12 44 -22 122 -8 17 -14 33 -14 36 0 7 -105 280 -120
312 -20 43 -102 261 -103 274 -2 16 27 25 155 46 17 3 35 8 38 10 4 3 25 8 46
11 22 3 44 7 49 8 6 2 36 8 67 15 32 7 70 14 85 16 16 2 28 4 28 5 0 1 7 3 15
5 8 1 71 15 140 29 69 14 152 33 185 41 33 7 74 16 90 19 24 4 158 32 295 61
109 24 320 68 335 70 11 2 65 13 120 25 55 12 111 24 125 26 14 3 33 7 42 10
10 3 29 7 43 10 32 5 65 12 90 18 24 5 360 76 395 82 14 3 45 10 70 16 25 5
58 12 75 14 16 2 37 7 47 10 9 2 25 7 35 9 10 2 86 18 168 35 83 18 159 34
170 36 11 2 33 7 49 10 16 3 91 18 165 35 75 16 150 32 166 35 17 2 37 7 45 9
8 2 26 6 40 9 20 3 96 19 200 41 8 2 51 11 95 20 44 9 89 19 100 21 11 3 31 7
45 9 14 2 79 16 145 30 66 15 129 28 140 30 11 3 31 7 45 10 14 3 36 7 50 10
26 5 59 12 100 21 14 3 55 12 92 19 74 15 115 34 140 63 14 18 24 56 18 72 -1
3 -3 12 -5 20 -8 37 -70 188 -87 213 -45 63 -111 74 -264 41 -60 -13 -124 -27
-143 -30 -40 -7 -41 -7 -161 -33 -52 -11 -110 -23 -129 -26 -19 -3 -38 -8 -43
-11 -5 -3 -19 -7 -31 -9 -51 -6 -112 -17 -118 -20 -5 -4 -109 -26 -184 -41
-11 -2 -31 -6 -45 -9 -14 -3 -36 -8 -50 -10 -39 -9 -112 -24 -140 -30 -14 -3
-41 -8 -60 -12 -46 -9 -50 -10 -52 -12 -2 -2 -14 -4 -28 -6 -21 -3 -369 -76
-435 -91 -18 -4 -50 -11 -135 -29 -19 -4 -108 -23 -140 -30 -3 0 -27 -5 -55
-10 -54 -9 -64 -11 -67 -15 -2 -1 -12 -3 -23 -5 -11 -1 -54 -10 -95 -20 -41
-9 -84 -18 -95 -19 -11 -2 -29 -6 -40 -9 -11 -3 -36 -8 -55 -11 -19 -3 -78
-15 -130 -27 -121 -26 -129 -28 -165 -34 -16 -3 -38 -8 -47 -11 -9 -3 -27 -7
-39 -9 -13 -3 -66 -13 -118 -24 -53 -11 -107 -22 -121 -25 -14 -2 -69 -14
-124 -26 -108 -24 -127 -28 -171 -36 -16 -3 -111 -23 -211 -44 -183 -40 -748
-158 -794 -166 -14 -3 -32 -7 -40 -9 -8 -2 -29 -7 -45 -9 l-30 -5 -68 177
c-38 97 -72 186 -77 197 -5 11 -19 45 -30 75 -11 30 -25 64 -30 75 -5 11 -32
81 -60 155 -28 74 -57 149 -64 165 -7 17 -26 65 -42 108 -35 94 -67 132 -125
148 -47 12 -107 17 -116 9z"/>
<path d="M4925 4308 c-181 -60 -334 -110 -340 -112 -13 -3 -295 -95 -315 -103
-8 -4 -17 -7 -20 -8 -11 -2 -86 -27 -100 -32 -8 -3 -21 -7 -28 -9 -8 -1 -21
-6 -30 -10 -9 -4 -21 -8 -27 -10 -5 -1 -86 -28 -180 -59 -93 -31 -174 -58
-180 -59 -17 -3 -419 -137 -440 -146 -11 -5 -90 -32 -175 -59 -182 -60 -136
-56 98 7 40 11 76 21 80 21 4 1 25 6 47 12 22 6 49 13 60 16 38 8 50 11 50 13
0 1 7 3 15 5 8 2 33 8 55 13 22 6 87 22 145 36 58 14 119 30 135 35 17 6 103
28 191 50 89 22 174 45 188 51 14 5 26 8 26 5 0 -2 15 1 33 6 17 5 147 39 287
75 409 105 441 114 520 135 41 11 84 21 95 23 11 2 20 4 20 5 0 2 7 4 15 6 8
1 53 13 100 25 47 12 91 22 98 23 18 1 15 12 -25 88 -22 40 -44 69 -53 68 -8
0 -163 -50 -345 -111z"/>
<path d="M6266 4053 c-1 -1 -18 -5 -37 -7 -19 -3 -41 -7 -49 -10 -8 -3 -31 -7
-50 -10 -30 -4 -88 -16 -259 -52 -14 -3 -35 -6 -46 -8 -11 -2 -29 -6 -40 -9
-11 -3 -38 -8 -60 -12 -22 -3 -48 -8 -58 -11 -11 -3 -29 -7 -40 -9 -12 -2 -58
-11 -102 -20 -44 -9 -91 -18 -105 -21 -31 -6 -166 -32 -200 -40 -23 -5 -151
-30 -195 -39 -11 -2 -20 -4 -20 -5 0 -1 -13 -3 -30 -5 -24 -4 -139 -27 -246
-50 -9 -2 -32 -6 -50 -9 -19 -3 -45 -8 -59 -11 -14 -3 -59 -12 -100 -20 -41
-8 -85 -17 -97 -20 -13 -3 -31 -7 -40 -9 -10 -2 -67 -13 -128 -25 -60 -11
-121 -23 -135 -26 -55 -13 -76 -17 -95 -20 -11 -1 -41 -8 -68 -14 -26 -6 -64
-14 -85 -17 -20 -3 -39 -8 -42 -11 -6 -6 99 6 185 20 17 3 57 9 90 12 33 4 71
9 85 11 14 3 41 6 60 9 19 2 55 7 80 10 25 4 56 8 70 10 14 1 43 5 65 9 22 3
63 8 90 11 28 3 59 7 70 9 11 2 45 7 75 11 30 4 64 9 74 11 11 2 42 6 70 9 28
2 61 7 73 9 12 3 46 7 75 10 29 4 64 8 78 10 50 9 98 16 155 22 32 3 67 7 78
10 11 2 45 6 76 10 31 3 65 8 76 11 11 2 40 6 65 8 25 3 61 8 80 10 19 3 51 8
70 11 19 2 49 6 65 9 17 2 59 7 95 11 36 3 68 8 71 10 3 2 32 6 64 10 32 3 67
7 78 10 11 2 45 6 76 9 31 4 67 8 81 11 14 2 45 7 70 10 61 8 82 13 87 17 2 3
-6 39 -18 80 -21 69 -25 76 -46 75 -13 -2 -25 -4 -27 -5z"/>
<path d="M2905 3640 c-3 -6 1 -7 9 -4 18 7 21 14 7 14 -6 0 -13 -4 -16 -10z"/>
<path d="M2223 3287 c-2 -4 -4 -46 -3 -95 2 -120 3 -115 -20 -109 -11 3 -23 1
-26 -4 -3 -5 -10 -7 -15 -3 -6 3 -38 5 -72 4 -34 -1 -96 -1 -137 0 -93 1 -11
1 -600 1 -278 0 -512 0 -520 0 -8 0 -62 0 -120 0 -58 -1 -112 -1 -120 0 -8 0
-132 -1 -275 -1 l-260 -2 50 -45 c108 -99 310 -240 475 -332 100 -56 322 -164
338 -164 6 0 12 -4 12 -9 0 -4 3 -7 8 -6 4 1 24 -6 46 -15 21 -9 42 -17 47
-17 5 0 17 -4 27 -10 43 -24 316 -105 457 -135 47 -10 127 -26 160 -31 17 -2
40 -7 53 -10 12 -2 46 -7 75 -9 28 -3 72 -7 97 -10 25 -3 99 -7 165 -10 218
-9 290 -14 330 -23 51 -11 47 -10 65 -16 8 -2 33 -10 55 -16 65 -20 176 -85
237 -139 192 -173 202 -423 23 -607 -123 -126 -315 -202 -538 -213 -16 -1 -17
-15 -15 -188 l3 -188 823 0 c763 0 825 1 833 17 5 9 9 27 9 40 0 30 47 117 85
159 72 80 163 129 290 156 315 68 624 -76 679 -315 l13 -57 826 0 c551 0 827
3 828 10 3 27 4 362 1 375 -2 12 -19 17 -65 18 -34 2 -75 5 -92 7 -113 15
-113 14 -180 30 -243 56 -488 204 -612 370 -102 136 -138 240 -138 395 0 114
16 179 66 281 139 282 509 490 914 516 55 3 102 9 105 14 4 6 5 348 1 384 -1
12 -4380 14 -4388 2z"/>
</g>
</svg>
